<svg width="41" height="36" viewBox="0 0 41 36" fill="none" xmlns="http://www.w3.org/2000/svg">
<path d="M1.46126 27.5438C1.57772 27.3576 1.75908 27.3443 2.01299 27.5058C7.80708 30.8498 14.1128 32.5313 20.9244 32.5313C25.47 32.5313 29.9544 31.682 34.3854 30.0005L34.8856 29.7782C35.1052 29.6813 35.2579 29.6186 35.3514 29.5711C35.7123 29.4305 35.9738 29.5008 36.1876 29.7782C36.3824 30.0499 36.3327 30.3083 35.9967 30.5382C35.5901 30.8384 35.0422 31.188 34.3931 31.5737C32.4134 32.7498 30.1874 33.6599 27.7265 34.3116C25.3791 34.9398 22.9601 35.2642 20.5293 35.2768C16.923 35.2768 13.5038 34.6498 10.2794 33.3958C7.09829 32.1566 4.16799 30.3563 1.62926 28.0815C1.4689 27.9656 1.39062 27.8478 1.39062 27.7319C1.39062 27.6578 1.42117 27.5913 1.4689 27.5248L1.46126 27.5438ZM11.9212 17.6847C11.9212 16.0887 12.3164 14.7302 13.1029 13.5959C13.8933 12.4711 14.9681 11.618 16.3541 11.0385C17.6255 10.5046 19.1509 10.1265 20.9932 9.89469C21.6155 9.82439 22.6369 9.73129 24.0477 9.61919V9.03019C24.0477 7.56149 23.8874 6.56209 23.5743 6.05859C23.0932 5.37649 22.3334 5.03069 21.2776 5.03069H20.9913C20.2276 5.10479 19.5671 5.33849 19.0077 5.75839C18.4463 6.1873 18.0631 6.80678 17.931 7.49879C17.8374 7.97379 17.6026 8.23409 17.2418 8.30819L13.2232 7.80659C12.8242 7.70969 12.6294 7.52159 12.6294 7.18719C12.6294 7.11689 12.6409 7.04659 12.6638 6.95349C13.0628 4.90529 14.0288 3.37959 15.5656 2.38589C17.1196 1.40929 18.9104 0.839289 20.9645 0.723389H21.8255C24.4582 0.723389 26.5391 1.40929 28.0186 2.76779C28.2382 3.00149 28.452 3.24279 28.6677 3.52399C28.8586 3.78809 29.0266 4.02559 29.1144 4.24029C29.2347 4.45119 29.3569 4.76279 29.4275 5.14279C29.5249 5.54749 29.5955 5.81159 29.6433 5.95219C29.6872 6.11559 29.7406 6.42719 29.7654 6.92879C29.7769 7.42659 29.796 7.70779 29.796 7.80469V16.1761C29.796 16.7727 29.8895 17.3199 30.0575 17.8196C30.2255 18.3136 30.3897 18.6765 30.5577 18.8893L31.3748 19.9552C31.4971 20.1241 31.5704 20.3233 31.5867 20.5309C31.5867 20.7247 31.4932 20.8881 31.3042 21.0249C29.3913 22.6912 28.3394 23.5937 28.1752 23.7381C27.9136 23.9528 27.5776 23.9756 27.1729 23.8122C26.879 23.5658 26.5992 23.3031 26.3348 23.0256L25.8423 22.4727C25.7449 22.353 25.5731 22.1421 25.3344 21.8039L24.8572 21.1142C23.5666 22.5202 22.3028 23.4037 21.0352 23.7609C20.2448 23.9984 19.2903 24.1181 18.1162 24.1181C16.3484 24.1181 14.8688 23.5766 13.7195 22.4784C12.5779 21.384 12.0014 19.8393 12.0014 17.8177L11.9193 17.698L11.9212 17.6847ZM17.8985 16.9874C17.8985 17.8899 18.1219 18.6062 18.5763 19.1515C19.0268 19.693 19.6511 19.9647 20.4185 19.9647C20.4854 19.9647 20.5865 19.9495 20.724 19.9305C20.8729 19.9077 20.9359 19.8925 20.9932 19.8925C21.9706 19.6398 22.7152 19.0166 23.2631 18.0267C23.5277 17.5792 23.7203 17.0932 23.8339 16.5865C23.979 16.0773 24.0248 15.6479 24.0458 15.3211C24.0764 15.0057 24.0764 14.4604 24.0764 13.7251V12.8682C22.7343 12.8682 21.7091 12.9613 21.0142 13.1494C18.9848 13.7251 17.952 15.0057 17.952 17.0045L17.8966 16.9741V16.9874H17.8985ZM32.4954 28.1309C32.5432 28.034 32.6157 27.9561 32.7035 27.8592C33.2782 27.4773 33.8414 27.2094 34.3778 27.0688C35.2176 26.8539 36.0774 26.7259 36.9436 26.6869C37.167 26.6679 37.3904 26.6869 37.6042 26.7344C38.6332 26.8313 39.2708 27.0023 39.4694 27.2531C39.5705 27.4013 39.6106 27.616 39.6106 27.8763V28.1138C39.6106 28.9232 39.3873 29.8732 38.9463 30.9676C38.5053 32.062 37.8905 32.9455 37.1078 33.6314C36.9914 33.7245 36.8883 33.772 36.7947 33.772C36.747 33.772 36.6974 33.772 36.6534 33.753C36.5084 33.6827 36.4816 33.563 36.5484 33.3711C37.4094 31.3742 37.8314 29.9758 37.8314 29.1892C37.8314 28.9479 37.7836 28.7579 37.6901 28.6401C37.4629 28.3798 36.8176 28.2278 35.7428 28.2278C35.2794 28.2347 34.8164 28.2594 34.3549 28.3019C33.7764 28.3798 33.2438 28.4501 32.7627 28.5204C32.6214 28.5204 32.5279 28.4938 32.4764 28.4501C32.4286 28.4026 32.4172 28.376 32.442 28.3285C32.442 28.3019 32.4534 28.281 32.4764 28.2278V28.1347L32.4954 28.1309Z" fill="white"/>
</svg>
